# AST/ASF file generated using VICON BodyLanguage
# -----------------------------------------------
:version 1.10
:name VICON
:units
  mass 1.0
  length 0.45
  angle deg
:documentation
   .ast/.asf automatically generated from VICON data using
   VICON BodyBuilder and BodyLanguage model FoxedUp or BRILLIANT.MOD
:root
   order TX TY TZ RX RY RZ
   axis XYZ
   position 0 0 0  
   orientation 0 0 0 
:bonedata
  begin
     id 1 
     name lhipjoint
     direction 0.671379 -0.66392 0.329334 
     length 2.38647 
     axis 0 0 0  XYZ
  end
  begin
     id 2 
     name lfemur
     direction 0.34202 -0.939693 0  
     length 6.48179  
     axis 0 0 20  XYZ
    dof rx ry rz
    limits (-160.0 20.0)
           (-70.0 70.0)
           (-60.0 70.0)
  end
  begin
     id 3 
     name ltibia
     direction 0.34202 -0.939693 0   
     length 6.86524   
     axis 0 0 20   XYZ
    dof rx
    limits (-10.0 170.0)
  end
  begin
     id 4 
     name lfoot
     direction 0.204886 -0.562919 0.800715   
     length 1.73031   
     axis -90 7.62852e-016 20   XYZ
    dof rx rz
    limits (-45.0 90.0)
           (-70.0 20.0)
  end
  begin
     id 5 
     name ltoes
     direction 1.53548e-011 -4.21841e-011 1   
     length 0.828161   
     axis -90 7.62852e-016 20   XYZ
    dof rx
    limits (-90.0 20.0)
  end
  begin
     id 6 
     name rhipjoint
     direction -0.662732 -0.670855 0.332775   
     length 2.3618  
     axis 0 0 0  XYZ 
  end
  begin
     id 7 
     name rfemur
     direction -0.34202 -0.939693 0   
     length 6.3025   
     axis 0 0 -20   XYZ
    dof rx ry rz
    limits (-160.0 20.0)
           (-70.0 70.0)
           (-70.0 60.0)
  end
  begin
     id 8 
     name rtibia
     direction -0.34202 -0.939693 0   
     length 6.8732   
     axis 0 0 -20   XYZ
    dof rx
    limits (-10.0 170.0)
 end
 begin
     id 9 
     name rfoot
     direction -0.173856 -0.477665 0.861168   
     length 1.54784  
     axis -90 -7.62852e-016 -20   XYZ
    dof rx rz
    limits (-45.0 90.0)
           (-20.0 70.0)
  end
  begin
     id 10 
     name rtoes
     direction -1.53562e-011 -4.21802e-011 1   
     length 0.759618   
     axis -90 -7.62852e-016 -20   XYZ
    dof rx
    limits (-90.0 20.0)
  end
  begin
     id 11 
     name lowerback
     direction -0.0278357 0.999497 -0.0151789   
     length 1.97203   
     axis 0 0 0   XYZ
    dof rx ry rz
    limits (-20.0 45.0)
           (-30.0 30.0)
           (-30.0 30.0)
  end
  begin
     id 12 
     name upperback
     direction -0.00360622 0.997542 0.0699804   
     length 1.94709   
     axis 0 0 0   XYZ
    dof rx ry rz
    limits (-20.0 45.0)
           (-30.0 30.0)
           (-30.0 30.0)
  end
  begin
     id 13 
     name thorax
     direction 0.00907706 0.997048 0.0762461   
     length 1.95722   
     axis 0 0 0   XYZ
    dof rx ry rz
    limits (-20.0 45.0)
           (-30.0 30.0)
           (-30.0 30.0)
  end
  begin
     id 14 
     name lowerneck
     direction -0.0481835 0.99872 -0.0153927   
     length 1.63078   
     axis 0 0 0   XYZ
    dof rx ry rz
    limits (-20.0 45.0)
           (-30.0 30.0)
           (-30.0 30.0)
  end
  begin
     id 15 
     name upperneck
     direction 0.0859716 0.979226 -0.183644   
     length 1.62591   
     axis 0 0 0   XYZ
    dof rx ry rz
    limits (-20.0 45.0)
           (-30.0 30.0)
           (-30.0 30.0)
  end
  begin
     id 16
     name head
     direction 0.0324821 0.997629 -0.0606773  
     length 1.64811  
     axis 0 0 0   XYZ
    dof rx ry rz
    limits (-20.0 45.0)
           (-30.0 30.0)
           (-30.0 30.0)
  end
  begin
     id 17 
     name lclavicle
     direction 0.939609 0.311019 0.142835  
     length 3.70647  
     axis 0 0 0   XYZ
    dof ry rz
    limits (-20.0 10.0)
           (0.0 20.0)
  end
  begin
     id 18 
     name lhumerus
     direction 1 -4.48963e-011 -1.59838e-027   
     length 4.59207   
     axis 180 -30 -90   XYZ
    dof rx ry rz
    limits (-60.0 90.0)
           (-90.0 90.0)
           (-90.0 90.0)
  end
  begin
     id 19
     name lradius
     direction 1 -4.48957e-011 -1.3483e-026   
     length 2.98109   
     axis 180 -30 -90   XYZ
    dof rx
    limits (-10.0 170.0)
  end
  begin
     id 20
     name lwrist
     direction 1 -4.48954e-011 -3.11579e-026   
     length 1.49055   
     axis 2.00652e-014 90 90   XYZ
    dof ry
    limits (-180.0 0.0)
 end
  begin
     id 21 
     name lhand
     direction 1 -4.4911e-011 -6.23158e-026   
     length 0.480203   
     axis 3.97628e-014 90 90   XYZ
    dof rx rz
    limits (-90.0 90.0)
           (-45.0 45.0)
  end
  begin
     id 22 
     name lfingers
     direction 1 -4.48893e-011 -1.24632e-025   
     length 0.387152   
     axis 7.95256e-014 90 90   XYZ
    dof rx
    limits (0.0 90.0)
  end
  begin
     id 23
     name lthumb
     direction 0.707107 -6.35013e-011 0.707107   
     length 0.555875   
     axis -90 45 2.85299e-015   XYZ
    dof rx rz
    limits (-45.0 45.0)
           (-45.0 45.0)
  end
  begin
     id 24 
     name rclavicle
     direction -0.950396 0.30392 0.0661859   
     length 3.70894  
     axis 0 0 0   XYZ 
    dof ry rz
    limits (-10.0 20.0)
           (-20.0 0.0)
  end
  begin
     id 25 
     name rhumerus
     direction -1 -4.48957e-011 -2.96677e-027  
     length 4.76508   
     axis 180 30 90   XYZ
    dof rx ry rz
    limits (-90.0 60.0)
           (-90.0 90.0)
           (-90.0 90.0)
  end
  begin
     id 26 
     name rradius
     direction -1 -4.48974e-011 -1.44501e-026   
     length 2.78902   
     axis 180 30 90   XYZ
    dof rx
    limits (-10.0 170.0)
  end
  begin
     id 27 
     name rwrist
     direction -1 -4.48978e-011 -3.11579e-026   
     length 1.39451   
     axis 2.00652e-014 -90 -90   XYZ
    dof ry
    limits (-180.0 0.0)
  end
  begin
     id 28
     name rhand
     direction -1 -4.48956e-011 -6.23158e-026   
     length 0.721303   
     axis 3.97628e-014 -90 -90   XYZ
    dof rx rz
    limits (-90.0 90.0)
           (-45.0 45.0)
  end
  begin
     id 29
     name rfingers
     direction -1 -4.4899e-011 -1.24632e-025   
     length 0.581533   
     axis 7.95256e-014 -90 -90   XYZ
    dof rx
    limits (0.0 90.0)
  end
  begin
     id 30
     name rthumb
     direction -0.707107 -6.34911e-011 0.707107   
     length 0.834968   
     axis -90 -45 -2.85299e-015   XYZ
    dof rx rz
    limits (-45.0 45.0)
           (-45.0 45.0)
  end
:hierarchy
  begin
    root lhipjoint rhipjoint lowerback
    lhipjoint lfemur
    lfemur ltibia
    ltibia lfoot
    lfoot ltoes
    rhipjoint rfemur
    rfemur rtibia
    rtibia rfoot
    rfoot rtoes
    lowerback upperback
    upperback thorax
    thorax lowerneck lclavicle rclavicle
    lowerneck upperneck
    upperneck head
    lclavicle lhumerus
    lhumerus lradius
    lradius lwrist
    lwrist lhand lthumb
    lhand lfingers
    rclavicle rhumerus
    rhumerus rradius
    rradius rwrist
    rwrist rhand rthumb
    rhand rfingers
  end

#!OML:ASF I:\salsa\salsa 7_09\Patient 1\Session 1\dancerfemale.ASF
:FULLY-SPECIFIED
:DEGREES
333
root -13.6794 15.5764 5.98783 -8.32717 147.025 -7.79424
lowerback 13.3754 1.90728 1.01116
upperback -3.11102 2.71152 -0.210626
thorax -10.8549 1.2169 -1.40869
lowerneck 8.05907 -15.0318 -14.5373
upperneck 1.81952 -21.1535 9.2947
head 1.77891 -10.7421 4.66698
rclavicle 1.92821e-014 2.78299e-014
rhumerus -20.2996 -21.1513 -62.6757
rradius 63.85
rwrist 6.30728
rhand 5.06627 56.0885
rfingers 7.12502
rthumb 30.4332 28.5806
lclavicle 1.92821e-014 2.78299e-014
lhumerus -20.3066 -0.586428 91.9032
lradius 103.108
lwrist -17.9801
lhand -23.9562 37.0365
lfingers 7.12502
lthumb 2.51969 427.001
rfemur -26.8064 -15.6606 7.80795
rtibia 74.4773
rfoot -3.29771 -8.11494
rtoes -8.9743
lfemur -10.5811 -3.31195 -31.1167
ltibia 42.6662
lfoot -22.589 -21.6992
ltoes -13.3014
334
root -13.7445 15.5827 6.02367 -8.41897 149.069 -8.65965
lowerback 12.5404 1.04967 0.317856
upperback -3.07047 1.35761 -1.12294
thorax -10.3454 0.591792 -1.68093
lowerneck 7.80193 -15.0182 -14.4184
upperneck 2.51166 -21.1252 9.80539
head 2.06758 -10.7282 4.74142
rclavicle 3.96575e-014 -6.36111e-015
rhumerus -20.6052 -21.0471 -63.1712
rradius 65.5058
rwrist 4.98474
rhand 5.82238 55.2674
rfingers 7.12502
rthumb 31.1541 27.8954
lclavicle 3.96575e-014 -6.36111e-015
lhumerus -20.8273 -3.04517 93.0143
lradius 103.452
lwrist -17.8575
lhand -23.9369 36.8275
lfingers 7.12502
lthumb 2.53834 426.792
rfemur -25.5406 -16.7865 7.0293
rtibia 75.7804
rfoot -1.87627 -6.4945
rtoes -10.5195
lfemur -11.0188 -3.26202 -31.9013
ltibia 42.441
lfoot -21.4665 -23.5043
ltoes -11.8354
335
root -13.8042 15.5823 6.05512 -8.59699 150.676 -9.63682
lowerback 11.7833 0.190521 -0.498775
upperback -3.05261 0.0170013 -2.08403
thorax -9.92112 -0.0206935 -1.96577
lowerneck 8.69835 -14.5177 -14.7911
upperneck 1.5472 -20.6044 11.6884
head 1.81565 -10.5073 5.47253
rclavicle -7.26061e-014 -3.18055e-015
rhumerus -20.5938 -21.0922 -64.2936
rradius 67.0523
rwrist 4.07094
rhand 6.62861 54.4151
rfingers 7.12502
rthumb 31.9221 27.1935
lclavicle -7.26061e-014 -3.18055e-015
lhumerus -21.9281 -5.95322 93.1808
lradius 103.529
lwrist -17.105
lhand -24.4539 37.3125
lfingers 7.12502
lthumb 2.03897 427.283
rfemur -24.286 -17.7116 6.26876
rtibia 76.735
rfoot -0.355811 -4.66881
rtoes -12.2353
lfemur -11.4228 -2.79413 -32.7653
ltibia 42.0734
lfoot -20.0137 -25.5418
ltoes -8.43772
336
root -13.8777 15.588 6.07729 -8.74085 151.701 -9.90468
lowerback 11.5147 -0.7004 -0.603014
upperback -3.02555 -1.22689 -2.75837
thorax -9.78781 -0.625883 -2.38526
lowerneck 8.69952 -14.0174 -14.7176
upperneck 1.8562 -19.9477 12.0313
head 1.84934 -10.1817 5.60016
rclavicle 1.01728e-013 3.22031e-014
rhumerus -19.9383 -20.7204 -65.6655
rradius 67.988
rwrist 3.41854
rhand 7.39207 53.6336
rfingers 7.12502
rthumb 32.6488 26.5599
lclavicle 1.01728e-013 3.22031e-014
lhumerus -22.5064 -4.46229 94.9888
lradius 104.314
lwrist -18.6968
lhand -22.9624 35.7815
lfingers 7.12502
lthumb 3.47945 425.733
rfemur -22.6555 -18.26 6.25549
rtibia 77.2217
rfoot 0.78466 -2.56799
rtoes -15.3753
lfemur -11.3521 -1.60923 -33.0695
ltibia 41.4293
lfoot -19.4527 -27.0868
ltoes -8.16629
337
root -13.9515 15.5922 6.09589 -8.85591 152.17 -10.0819
lowerback 11.1852 -1.55512 -0.375339
upperback -2.95459 -2.3695 -3.51902
thorax -9.61077 -1.20364 -3.11474
lowerneck 8.4306 -13.53 -14.3236
upperneck 2.30798 -19.2577 12.5598
head 1.94834 -9.8256 5.71634
rclavicle 2.64632e-014 2.00773e-014
rhumerus -18.608 -20.21 -67.5325
rradius 68.3289
rwrist 3.00221
rhand 7.67379 52.5912
rfingers 7.12502
rthumb 32.9168 25.5735
lclavicle 2.64632e-014 2.00773e-014
lhumerus -23.6744 -4.71574 94.9953
lradius 104.471
lwrist -18.7656
lhand -22.7771 34.6057
lfingers 7.12502
lthumb 3.65837 424.554
rfemur -21.1806 -18.5616 6.50158
rtibia 77.3719
rfoot 1.50822 -0.675443
rtoes -16.7292
lfemur -11.1894 -0.13804 -33.2554
ltibia 40.7252
lfoot -19.0567 -28.3484
ltoes -9.01459
